# xmcd
#
# Track frame offsets:
#	150
#	22241
#	40914
#	64562
#
# Disc length: 1470 seconds
#
# Revision: 1
# Processed by: cddbd v1.5.2PL0 Copyright (c) Steve Scherf et al.
# Submitted via: audiograbber 1.83.01
#
DISCID=2f05bc04
DTITLE=Fergie - Fergalicious
DYEAR=2006
DGENRE=R&B
TTITLE0=Fergalicious (Radio Version)
TTITLE1=Paradise (Album Verrsion)
TTITLE2=London Bridge (Live)
TTITLE3=Daten-CD
EXTD=
EXTT0=
EXTT1=
EXTT2=
EXTT3=
PLAYORDER=
